<svg width="24" height="18" viewBox="0 0 24 18" fill="none" xmlns="http://www.w3.org/2000/svg">
<g clip-path="url(#clip0_2507_693)">
<rect width="24" height="18" transform="translate(0.000976562)" fill="white"/>
<path fill-rule="evenodd" clip-rule="evenodd" d="M0.000976562 0H24.001V18H0.000976562V0Z" fill="#E31D1C"/>
<path fill-rule="evenodd" clip-rule="evenodd" d="M0.000976562 1.5V3H24.001V1.5H0.000976562ZM0.000976562 4.5V6H24.001V4.5H0.000976562ZM0.000976562 9V7.5H24.001V9H0.000976562ZM0.000976562 10.5V12H24.001V10.5H0.000976562ZM0.000976562 15V13.5H24.001V15H0.000976562ZM0.000976562 18V16.5H24.001V18H0.000976562Z" fill="#F7FCFF"/>
<rect x="0.000976562" width="13.5" height="10.5" fill="#2E42A5"/>
<path fill-rule="evenodd" clip-rule="evenodd" d="M1.56118 3.26067L2.35606 2.70697L2.97265 3.15087H2.62354L3.32954 3.77532L3.09108 4.65087H2.7176L2.35495 3.84673L2.04567 4.65087H1.12354L1.82954 5.27532L1.56118 6.26067L2.35606 5.70697L2.97265 6.15087H2.62354L3.32954 6.77532L3.09108 7.65087H2.7176L2.35495 6.84673L2.04567 7.65087H1.12354L1.82954 8.27532L1.56118 9.26067L2.35606 8.70697L3.12516 9.26067L2.88604 8.27532L3.50369 7.65087H3.2188L3.85606 7.20697L4.47265 7.65087H4.12354L4.82954 8.27532L4.56118 9.26067L5.35606 8.70697L6.12516 9.26067L5.88604 8.27532L6.50369 7.65087H6.2188L6.85606 7.20697L7.47265 7.65087H7.12354L7.82954 8.27532L7.56118 9.26067L8.35606 8.70697L9.12516 9.26067L8.88604 8.27532L9.50369 7.65087H9.2188L9.85606 7.20697L10.4726 7.65087H10.1235L10.8295 8.27532L10.5612 9.26067L11.3561 8.70697L12.1252 9.26067L11.886 8.27532L12.5037 7.65087H11.7176L11.3549 6.84673L11.0457 7.65087H10.5985L10.386 6.77532L11.0037 6.15087H10.7188L11.3561 5.70697L12.1252 6.26067L11.886 5.27532L12.5037 4.65087H11.7176L11.3549 3.84673L11.0457 4.65087H10.5985L10.386 3.77532L11.0037 3.15087H10.7188L11.3561 2.70697L12.1252 3.26067L11.886 2.27532L12.5037 1.65087H11.7176L11.3549 0.846725L11.0457 1.65087H10.1235L10.8295 2.27532L10.5911 3.15087H10.2176L9.85495 2.34673L9.54567 3.15087H9.09851L8.88604 2.27532L9.50369 1.65087H8.7176L8.35495 0.846725L8.04567 1.65087H7.12354L7.82954 2.27532L7.59108 3.15087H7.2176L6.85495 2.34673L6.54567 3.15087H6.09851L5.88604 2.27532L6.50369 1.65087H5.7176L5.35495 0.846725L5.04567 1.65087H4.12354L4.82954 2.27532L4.59108 3.15087H4.2176L3.85495 2.34673L3.54567 3.15087H3.09851L2.88604 2.27532L3.50369 1.65087H2.7176L2.35495 0.846725L2.04567 1.65087H1.12354L1.82954 2.27532L1.56118 3.26067ZM10.5911 6.15087L10.8295 5.27532L10.1235 4.65087H10.4726L9.85606 4.20697L9.2188 4.65087H9.50369L8.88604 5.27532L9.09851 6.15087H9.54567L9.85495 5.34673L10.2176 6.15087H10.5911ZM8.97265 6.15087L8.35606 5.70697L7.7188 6.15087H8.00369L7.38604 6.77532L7.59851 7.65087H8.04567L8.35495 6.84673L8.7176 7.65087H9.09108L9.32954 6.77532L8.62354 6.15087H8.97265ZM6.32954 6.77532L6.09108 7.65087H5.7176L5.35495 6.84673L5.04567 7.65087H4.59851L4.38604 6.77532L5.00369 6.15087H4.7188L5.35606 5.70697L5.97265 6.15087H5.62354L6.32954 6.77532ZM6.54567 6.15087H6.09851L5.88604 5.27532L6.50369 4.65087H6.2188L6.85606 4.20697L7.47265 4.65087H7.12354L7.82954 5.27532L7.59108 6.15087H7.2176L6.85495 5.34673L6.54567 6.15087ZM4.59108 6.15087L4.82954 5.27532L4.12354 4.65087H4.47265L3.85606 4.20697L3.2188 4.65087H3.50369L2.88604 5.27532L3.09851 6.15087H3.54567L3.85495 5.34673L4.2176 6.15087H4.59108ZM9.32954 3.77532L9.09108 4.65087H8.7176L8.35495 3.84673L8.04567 4.65087H7.59851L7.38604 3.77532L8.00369 3.15087H7.7188L8.35606 2.70697L8.97265 3.15087H8.62354L9.32954 3.77532ZM5.97265 3.15087L5.35606 2.70697L4.7188 3.15087H5.00369L4.38604 3.77532L4.59851 4.65087H5.04567L5.35495 3.84673L5.7176 4.65087H6.09108L6.32954 3.77532L5.62354 3.15087H5.97265Z" fill="#F7FCFF"/>
</g>
<defs>
<clipPath id="clip0_2507_693">
<rect width="24" height="18" fill="white" transform="translate(0.000976562)"/>
</clipPath>
</defs>
</svg>
