<svg width="24" height="18" viewBox="0 0 24 18" fill="none" xmlns="http://www.w3.org/2000/svg">
<g clip-path="url(#clip0_2270_12042)">
<rect width="24" height="18" fill="white"/>
<path fill-rule="evenodd" clip-rule="evenodd" d="M0 0V18H24V0H0Z" fill="#FFB400"/>
<mask id="mask0_2270_12042" style="mask-type:luminance" maskUnits="userSpaceOnUse" x="0" y="0" width="24" height="18">
<path fill-rule="evenodd" clip-rule="evenodd" d="M0 0V18H24V0H0Z" fill="white"/>
</mask>
<g mask="url(#mask0_2270_12042)">
<path fill-rule="evenodd" clip-rule="evenodd" d="M0 0V4.5H24V0H0Z" fill="#C51918"/>
<path fill-rule="evenodd" clip-rule="evenodd" d="M0 13.5V18H24V13.5H0Z" fill="#C51918"/>
<rect x="3.75598" y="7.70399" width="0.84" height="4.368" fill="#F1F9FF"/>
<path fill-rule="evenodd" clip-rule="evenodd" d="M4.93192 6.948H3.41992V7.368H3.67192V7.704H4.67992V7.368H4.93192V6.948Z" fill="#C88A02"/>
<path fill-rule="evenodd" clip-rule="evenodd" d="M4.67992 12.324H4.93192V12.744H3.41992V12.324H3.67192V11.988H4.67992V12.324Z" fill="#C88A02"/>
<path fill-rule="evenodd" clip-rule="evenodd" d="M4.17601 7.032C4.35881 7.032 4.37739 6.96317 4.48524 6.86036C4.56898 6.78054 4.76401 6.68153 4.76401 6.57C4.76401 6.31485 4.50076 6.108 4.17601 6.108C3.85127 6.108 3.58801 6.31485 3.58801 6.57C3.58801 6.69425 3.72232 6.77733 3.82388 6.86036C3.93087 6.94784 4.00941 7.032 4.17601 7.032Z" fill="#AD1619"/>
<path fill-rule="evenodd" clip-rule="evenodd" d="M3.41992 12.744H4.93192V13.416C4.93192 13.416 4.74292 13.332 4.55392 13.332C4.36492 13.332 4.17592 13.416 4.17592 13.416C4.17592 13.416 3.98692 13.332 3.79792 13.332C3.60892 13.332 3.41992 13.416 3.41992 13.416V12.744Z" fill="#005BBF"/>
<mask id="mask1_2270_12042" style="mask-type:luminance" maskUnits="userSpaceOnUse" x="3" y="12" width="2" height="2">
<path fill-rule="evenodd" clip-rule="evenodd" d="M3.41992 12.744H4.93192V13.416C4.93192 13.416 4.74292 13.332 4.55392 13.332C4.36492 13.332 4.17592 13.416 4.17592 13.416C4.17592 13.416 3.98692 13.332 3.79792 13.332C3.60892 13.332 3.41992 13.416 3.41992 13.416V12.744Z" fill="white"/>
</mask>
<g mask="url(#mask1_2270_12042)">
<path d="M3.40629 13.2839L3.37329 13.2035C3.50947 13.1429 3.64614 13.1125 3.78302 13.1125C3.87145 13.1125 3.91763 13.1248 3.99613 13.1597C4.06509 13.1904 4.10083 13.2 4.17625 13.2C4.25166 13.2 4.2874 13.1904 4.35636 13.1597C4.43486 13.1248 4.48104 13.1125 4.56947 13.1125C4.70635 13.1125 4.84302 13.1429 4.9792 13.2035L4.9462 13.2839C4.82023 13.2279 4.69475 13.2 4.56947 13.2C4.49406 13.2 4.45832 13.2095 4.38936 13.2402C4.31086 13.2751 4.26468 13.2875 4.17625 13.2875C4.08781 13.2875 4.04164 13.2751 3.96313 13.2402C3.89418 13.2095 3.85843 13.2 3.78302 13.2C3.65774 13.2 3.53226 13.2279 3.40629 13.2839Z" fill="white"/>
<path d="M3.40629 13.0319L3.37329 12.9515C3.50947 12.8909 3.64614 12.8605 3.78302 12.8605C3.87145 12.8605 3.91763 12.8728 3.99613 12.9077C4.06509 12.9384 4.10083 12.948 4.17625 12.948C4.25166 12.948 4.2874 12.9384 4.35636 12.9077C4.43486 12.8728 4.48104 12.8605 4.56947 12.8605C4.70635 12.8605 4.84302 12.8909 4.9792 12.9515L4.9462 13.0319C4.82023 12.9759 4.69475 12.948 4.56947 12.948C4.49406 12.948 4.45832 12.9575 4.38936 12.9882C4.31086 13.0231 4.26468 13.0355 4.17625 13.0355C4.08781 13.0355 4.04164 13.0231 3.96313 12.9882C3.89418 12.9575 3.85843 12.948 3.78302 12.948C3.65774 12.948 3.53226 12.9759 3.40629 13.0319Z" fill="white"/>
</g>
<rect x="11.9879" y="7.70399" width="0.84" height="4.368" fill="#F1F9FF"/>
<path fill-rule="evenodd" clip-rule="evenodd" d="M13.164 6.948H11.652V7.368H11.904V7.704H12.912V7.368H13.164V6.948Z" fill="#C88A02"/>
<path fill-rule="evenodd" clip-rule="evenodd" d="M12.912 12.324H13.164V12.744H11.652V12.324H11.904V11.988H12.912V12.324Z" fill="#C88A02"/>
<path fill-rule="evenodd" clip-rule="evenodd" d="M12.4079 7.032C12.5907 7.032 12.6093 6.96317 12.7172 6.86036C12.8009 6.78054 12.9959 6.68153 12.9959 6.57C12.9959 6.31485 12.7327 6.108 12.4079 6.108C12.0832 6.108 11.8199 6.31485 11.8199 6.57C11.8199 6.69425 11.9543 6.77733 12.0558 6.86036C12.1628 6.94784 12.2413 7.032 12.4079 7.032Z" fill="#AD1619"/>
<path fill-rule="evenodd" clip-rule="evenodd" d="M11.652 12.744H13.164V13.416C13.164 13.416 12.975 13.332 12.786 13.332C12.597 13.332 12.408 13.416 12.408 13.416C12.408 13.416 12.219 13.332 12.03 13.332C11.841 13.332 11.652 13.416 11.652 13.416V12.744Z" fill="#005BBF"/>
<mask id="mask2_2270_12042" style="mask-type:luminance" maskUnits="userSpaceOnUse" x="11" y="12" width="3" height="2">
<path fill-rule="evenodd" clip-rule="evenodd" d="M11.652 12.744H13.164V13.416C13.164 13.416 12.975 13.332 12.786 13.332C12.597 13.332 12.408 13.416 12.408 13.416C12.408 13.416 12.219 13.332 12.03 13.332C11.841 13.332 11.652 13.416 11.652 13.416V12.744Z" fill="white"/>
</mask>
<g mask="url(#mask2_2270_12042)">
<path d="M11.6383 13.2839L11.6053 13.2035C11.7415 13.1429 11.8782 13.1125 12.0151 13.1125C12.1035 13.1125 12.1497 13.1248 12.2282 13.1597C12.2971 13.1904 12.3329 13.2 12.4083 13.2C12.4837 13.2 12.5195 13.1904 12.5884 13.1597C12.6669 13.1248 12.7131 13.1125 12.8015 13.1125C12.9384 13.1125 13.0751 13.1429 13.2113 13.2035L13.1783 13.2839C13.0523 13.2279 12.9268 13.2 12.8015 13.2C12.7261 13.2 12.6904 13.2095 12.6214 13.2402C12.5429 13.2751 12.4967 13.2875 12.4083 13.2875C12.3199 13.2875 12.2737 13.2751 12.1952 13.2402C12.1262 13.2095 12.0905 13.2 12.0151 13.2C11.8898 13.2 11.7643 13.2279 11.6383 13.2839Z" fill="white"/>
<path d="M11.6383 13.0319L11.6053 12.9515C11.7415 12.8909 11.8782 12.8605 12.0151 12.8605C12.1035 12.8605 12.1497 12.8728 12.2282 12.9077C12.2971 12.9384 12.3329 12.948 12.4083 12.948C12.4837 12.948 12.5195 12.9384 12.5884 12.9077C12.6669 12.8728 12.7131 12.8605 12.8015 12.8605C12.9384 12.8605 13.0751 12.8909 13.2113 12.9515L13.1783 13.0319C13.0523 12.9759 12.9268 12.948 12.8015 12.948C12.7261 12.948 12.6904 12.9575 12.6214 12.9882C12.5429 13.0231 12.4967 13.0355 12.4083 13.0355C12.3199 13.0355 12.2737 13.0231 12.1952 12.9882C12.1262 12.9575 12.0905 12.948 12.0151 12.948C11.8898 12.948 11.7643 12.9759 11.6383 13.0319Z" fill="white"/>
</g>
<path fill-rule="evenodd" clip-rule="evenodd" d="M3.74094 11.7599C3.89238 11.5763 3.97707 11.4093 3.97707 11.2319C3.97707 11.12 3.94379 11.0234 3.88546 10.9445L3.89532 10.9401C3.89441 10.9405 4.06146 10.8677 4.11962 10.8398C4.22773 10.7879 4.32298 10.733 4.41585 10.6655C4.47513 10.6224 4.55457 10.5754 4.67567 10.5104L4.78944 10.4499L4.82019 10.4335C4.87905 10.4021 4.92287 10.3781 4.96359 10.3545C5.09047 10.2809 5.17431 10.22 5.23844 10.1387C5.39033 9.94611 5.35879 9.68502 5.14595 9.5401C5.04167 9.4691 4.90095 9.42836 4.69468 9.39629L4.65195 9.38969L4.39966 9.35057C4.30095 9.33507 4.21288 9.3206 4.13435 9.30689C4.65077 9.22095 5.3882 9.25254 5.71257 9.42001L6.02087 8.8229C5.35986 8.48162 3.85376 8.51647 3.29116 8.90392C2.87851 9.18809 2.93388 9.61767 3.36322 9.80265C3.54263 9.87994 3.7765 9.93123 4.20929 10.0008C4.13676 10.0428 4.07663 10.0813 4.02061 10.122C3.96379 10.1633 3.90291 10.1984 3.82908 10.2338C3.79377 10.2508 3.68925 10.2967 3.6413 10.3177L3.64126 10.3177L3.64125 10.3177L3.61716 10.3283C3.26745 10.4874 3.09772 10.7073 3.14844 11.1044L3.1759 11.3194L3.22514 11.3345L3.74094 11.7599ZM3.30865 11.2044L3.30759 11.2075L3.3084 11.2053L3.30865 11.2044ZM12.5294 11.2319C12.5294 11.4093 12.6141 11.5763 12.7656 11.7599L13.2814 11.3345L13.3306 11.3194L13.3581 11.1044C13.4088 10.7073 13.2391 10.4874 12.8893 10.3283L12.8652 10.3177L12.8652 10.3177C12.8172 10.2966 12.7127 10.2508 12.6774 10.2338C12.6036 10.1984 12.5427 10.1633 12.4859 10.122C12.4299 10.0813 12.3698 10.0428 12.2972 10.0008C12.73 9.93123 12.9639 9.87994 13.1433 9.80265C13.5726 9.61767 13.628 9.18809 13.2154 8.90392C12.6528 8.51647 11.1467 8.48162 10.4856 8.8229L10.7939 9.42001C11.1183 9.25254 11.8557 9.22095 12.3722 9.30689C12.2936 9.3206 12.2056 9.33507 12.1068 9.35057L11.8547 9.38967L11.8118 9.39629C11.6056 9.42836 11.4648 9.4691 11.3606 9.5401C11.1477 9.68502 11.1162 9.94611 11.2681 10.1387C11.3322 10.22 11.416 10.2809 11.5429 10.3545C11.5836 10.3781 11.6275 10.4021 11.6863 10.4335L11.717 10.4499L11.8308 10.5104C11.9519 10.5754 12.0314 10.6224 12.0907 10.6655C12.1835 10.733 12.2788 10.7879 12.3869 10.8398C12.4451 10.8677 12.6121 10.9405 12.6112 10.9401L12.621 10.9445C12.5627 11.0234 12.5294 11.12 12.5294 11.2319Z" fill="#AD1619"/>
<path d="M4.4425 9.3L4.69044 9.3513V9.72085C4.42637 9.93155 3.75598 10.2867 3.75598 10.2867V9.3H4.4425Z" fill="#F1F9FF"/>
<path d="M12.236 9.3L11.988 9.3513V9.72085C12.2521 9.93155 12.9225 10.2867 12.9225 10.2867V9.3H12.236Z" fill="#F1F9FF"/>
<path fill-rule="evenodd" clip-rule="evenodd" d="M11.082 5.40449V5.2815C10.6499 4.97142 10.1975 4.81638 9.72461 4.81638C9.2713 4.61577 8.81245 4.5379 8.34807 4.58277C8.3482 4.58133 8.34827 4.58061 8.34827 4.58061C7.65003 4.51228 6.94636 4.81638 6.94636 4.81638C6.23708 4.81638 5.58899 5.2815 5.58899 5.2815V5.40449L6.43621 6.25539C6.43621 6.25539 6.67469 7.07438 8.34482 6.8819V6.88397C8.34482 6.88397 9.45058 6.85379 9.52828 6.82795C9.5591 6.8177 9.59108 6.80836 9.62375 6.79882C9.84033 6.73559 10.0876 6.66341 10.2348 6.25539L11.082 5.40449ZM8.34482 4.6204C8.3207 4.90369 8.18303 6.61138 8.34482 6.87614V4.6204Z" fill="#AD1619"/>
<path fill-rule="evenodd" clip-rule="evenodd" d="M6.23524 6.11218L6.2358 6.10959L5.63977 5.54882L5.69733 5.48764L6.25662 6.01384L6.27094 5.94801C6.36244 5.96791 6.42931 5.97522 6.4683 5.97108V5.85693L6.59227 5.92403C6.65326 5.95703 6.74059 5.9659 6.85561 5.94719C6.94009 5.93344 6.9971 5.83532 7.01574 5.62625L7.05337 5.20418L7.17959 5.60869C7.23671 5.79173 7.32385 5.87242 7.4479 5.87242C7.56906 5.87242 7.61776 5.828 7.62313 5.71604L7.63838 5.39851L7.78198 5.68213C7.83371 5.7843 7.90506 5.83066 8.0065 5.83066C8.15158 5.83066 8.2485 5.70971 8.2485 5.51992H8.25124H8.4165H8.41924C8.41924 5.70971 8.51616 5.83066 8.66124 5.83066C8.76269 5.83066 8.83403 5.7843 8.88576 5.68213L9.02936 5.39851L9.04461 5.71604C9.04998 5.828 9.09868 5.87242 9.21984 5.87242C9.34389 5.87242 9.43103 5.79173 9.48815 5.60869L9.61437 5.20418L9.652 5.62625C9.67064 5.83532 9.72765 5.93344 9.81213 5.94719C9.92715 5.9659 10.0145 5.95703 10.0755 5.92403L10.1994 5.85693V5.97108C10.2384 5.97522 10.3053 5.96791 10.3968 5.94801L10.4234 6.07016L11.0425 5.48764L11.1001 5.54882L10.3296 6.27371C10.2172 6.48073 10.1606 6.61737 10.1606 6.67413C10.1606 6.76073 9.93529 6.81212 9.4956 6.86492C9.15113 6.90628 8.74461 6.93404 8.41208 6.93818V6.93872L8.36992 6.93859L8.32777 6.93872V6.93818C7.99524 6.93404 7.58872 6.90628 7.24425 6.86492C6.80456 6.81212 6.57927 6.76073 6.57927 6.67413C6.57927 6.66339 6.57724 6.6498 6.57319 6.63341C6.52885 6.57694 6.49768 6.48457 6.47694 6.40125C6.45747 6.36229 6.43524 6.31974 6.41025 6.27371L6.23955 6.11311L6.23524 6.11218ZM10.3643 6.1257C10.2268 6.15005 10.1274 6.14759 10.0747 6.10468C9.99226 6.12867 9.89556 6.13097 9.78515 6.113C9.66722 6.09381 9.5851 6.01537 9.53568 5.88525C9.47117 5.96744 9.3896 6.01818 9.29189 6.03458C9.82943 6.11082 10.206 6.21797 10.206 6.21797C10.206 6.21797 10.1967 6.29758 10.1741 6.39118C10.198 6.34218 10.2263 6.28773 10.259 6.22764L10.2671 6.21714L10.3643 6.1257ZM9.03823 6.00265C8.99148 5.97942 8.95415 5.94574 8.92716 5.90233C8.88708 5.93772 8.8415 5.96361 8.79088 5.97958C8.8754 5.98604 8.95804 5.99385 9.03823 6.00265ZM8.49434 5.96324C8.4289 5.933 8.3745 5.88458 8.33387 5.82253C8.29353 5.88414 8.23961 5.93231 8.17479 5.96259C8.21319 5.96145 8.25181 5.96064 8.29061 5.96021V5.95983L8.32429 5.95992L8.35798 5.95983V5.96021C8.4037 5.96072 8.44918 5.96175 8.49434 5.96324ZM6.4666 6.21139L6.38828 6.13771C6.48229 6.14703 6.55188 6.13819 6.59303 6.10468C6.67548 6.12867 6.77218 6.13097 6.88259 6.113C7.00052 6.09381 7.08264 6.01537 7.13206 5.88525C7.19471 5.96506 7.27343 6.01521 7.3674 6.03307C6.90394 6.09818 6.55816 6.18678 6.4666 6.21139ZM7.87322 5.97841C7.79184 5.98446 7.71216 5.99177 7.63468 6.00002C7.67902 5.97691 7.71459 5.94413 7.74058 5.90233C7.7797 5.93687 7.82405 5.96236 7.87322 5.97841ZM9.93973 6.67578C9.99859 6.70332 10.0458 6.67585 10.0831 6.62311C10.0798 6.63767 10.0778 6.65084 10.077 6.66264C10.0721 6.66586 10.0645 6.66974 10.0546 6.67391C10.0269 6.68554 9.98468 6.69794 9.92971 6.71048C9.82166 6.73513 9.66786 6.75963 9.48558 6.78152C9.12964 6.82425 8.7064 6.85238 8.36992 6.85458C8.03345 6.85238 7.61021 6.82425 7.25427 6.78152C7.07199 6.75963 6.91819 6.73513 6.81014 6.71048C6.76407 6.69996 6.72692 6.68956 6.69981 6.67961C6.7028 6.67848 6.70581 6.6772 6.70886 6.67578C6.89236 6.58991 8.10577 6.50934 8.32429 6.49543C8.54281 6.50934 9.75623 6.58991 9.93973 6.67578ZM10.1711 6.66039L10.1699 6.66186L10.1706 6.66079L10.1711 6.66039Z" fill="#C88A02"/>
<path fill-rule="evenodd" clip-rule="evenodd" d="M8.33415 4.0103C8.47333 4.0103 8.58615 3.89748 8.58615 3.7583C8.58615 3.61913 8.47333 3.5063 8.33415 3.5063C8.19498 3.5063 8.08215 3.61913 8.08215 3.7583C8.08215 3.89748 8.19498 4.0103 8.33415 4.0103Z" fill="#005BBF"/>
<path fill-rule="evenodd" clip-rule="evenodd" d="M8.17013 5.24761C8.17551 5.27526 8.18391 5.30101 8.19452 5.32396C8.16197 5.31153 8.12333 5.30432 8.08189 5.30432C7.96591 5.30432 7.87189 5.36074 7.87189 5.43032C7.87189 5.49991 7.96591 5.55632 8.08189 5.55632C8.19787 5.55632 8.29189 5.49991 8.29189 5.43032C8.29189 5.49991 8.38591 5.55632 8.50189 5.55632C8.61787 5.55632 8.71189 5.49991 8.71189 5.43032C8.71189 5.36074 8.61787 5.30432 8.50189 5.30432C8.47269 5.30432 8.44489 5.3079 8.41963 5.31436C8.42572 5.27991 8.42545 5.24041 8.4175 5.19952C8.39537 5.08567 8.32206 5.00415 8.25375 5.01742C8.18544 5.0307 8.148 5.13376 8.17013 5.24761ZM8.29189 5.43032L8.29179 5.42648L8.29198 5.42654L8.29189 5.43032ZM6.93452 5.40796C6.92391 5.38501 6.91551 5.35926 6.91013 5.33161C6.888 5.21776 6.92544 5.1147 6.99375 5.10142C7.06206 5.08815 7.13537 5.16967 7.1575 5.28352C7.16545 5.32441 7.16572 5.36391 7.15963 5.39836C7.18489 5.3919 7.21269 5.38832 7.24189 5.38832C7.35787 5.38832 7.45189 5.44474 7.45189 5.51432C7.45189 5.58391 7.35787 5.64032 7.24189 5.64032C7.12591 5.64032 7.03189 5.58391 7.03189 5.51432L7.03198 5.51054L7.03179 5.51048L7.03189 5.51432C7.03189 5.58391 6.93787 5.64032 6.82189 5.64032C6.70591 5.64032 6.61189 5.58391 6.61189 5.51432C6.61189 5.44474 6.70591 5.38832 6.82189 5.38832C6.86333 5.38832 6.90197 5.39553 6.93452 5.40796ZM9.56534 5.48474C9.55565 5.55366 9.45469 5.59643 9.33984 5.58029C9.22499 5.56415 9.13974 5.4952 9.14942 5.42629C9.15911 5.35738 9.26006 5.3146 9.37492 5.33074C9.41596 5.33651 9.45322 5.34902 9.48372 5.36586C9.4764 5.34166 9.47167 5.315 9.4702 5.28686C9.46413 5.17104 9.51554 5.0742 9.58503 5.07055C9.65452 5.06691 9.71578 5.15785 9.72185 5.27367C9.72403 5.31527 9.71879 5.35442 9.70797 5.38769C9.73389 5.3848 9.76192 5.38513 9.79083 5.3892C9.90568 5.40534 9.99093 5.47429 9.98125 5.5432C9.97156 5.61211 9.87061 5.65489 9.75576 5.63875C9.64091 5.6226 9.55565 5.55366 9.56534 5.48474ZM9.56534 5.48474L9.56578 5.48092L9.56595 5.48101L9.56534 5.48474ZM10.3651 5.81794C10.4676 5.87239 10.5771 5.86672 10.6097 5.80527L10.6114 5.80183C10.6215 5.81251 10.6335 5.82028 10.6471 5.82445C10.7136 5.84479 10.7951 5.77137 10.829 5.66046C10.8629 5.54955 10.8364 5.44314 10.7699 5.4228C10.7033 5.40245 10.6219 5.47587 10.588 5.58678C10.5798 5.61373 10.5751 5.6404 10.5737 5.66565C10.5508 5.63939 10.52 5.61489 10.4835 5.59543C10.3811 5.54098 10.2716 5.54665 10.2389 5.6081C10.2062 5.66954 10.2627 5.76349 10.3651 5.81794ZM6.2435 5.84367C6.1411 5.89812 6.0316 5.89245 5.99893 5.83101C5.99832 5.82987 5.99775 5.82872 5.99721 5.82757C5.98712 5.83824 5.97518 5.84601 5.96155 5.85018C5.89501 5.87052 5.81357 5.7971 5.77966 5.68619C5.74575 5.57528 5.77221 5.46888 5.83876 5.44853C5.90531 5.42818 5.98674 5.5016 6.02065 5.61252C6.02889 5.63946 6.03356 5.66614 6.03497 5.69138C6.05787 5.66512 6.0886 5.64062 6.12519 5.62117C6.2276 5.56672 6.3371 5.57238 6.36977 5.63383C6.40244 5.69527 6.34591 5.78922 6.2435 5.84367Z" fill="#C88A02"/>
<path fill-rule="evenodd" clip-rule="evenodd" d="M8.24002 3.05745H8.41502V3.168H8.52937V3.343H8.41502V3.693H8.52937V3.868H8.1239V3.693H8.24002V3.343H8.1239V3.168H8.24002V3.05745Z" fill="#C88A02"/>
<rect x="8.20789" y="4.008" width="0.336" height="1.092" fill="#C88A02"/>
<path d="M6.85538 4.19089L6.85392 4.27488C6.10909 4.26187 5.68185 4.37057 5.5734 4.58721C5.46127 4.81118 5.48212 5.08344 5.63923 5.40686L5.56367 5.44357C5.39605 5.09849 5.37315 4.79955 5.49828 4.5496C5.62708 4.29232 6.07905 4.17734 6.85538 4.19089Z" fill="white"/>
<path d="M6.99946 4.93574L6.9564 5.00786C6.79419 4.91101 6.71301 4.74573 6.71301 4.51796C6.71301 4.1906 6.88165 3.99863 7.25466 3.86726C7.49273 3.78342 7.81793 3.81779 8.2312 3.96763L8.20257 4.0466C7.80584 3.90276 7.49887 3.87031 7.28256 3.94649C6.94042 4.06699 6.79701 4.23024 6.79701 4.51796C6.79701 4.71784 6.86444 4.85512 6.99946 4.93574Z" fill="white"/>
<path d="M5.74511 5.27804L5.5866 5.33371C5.42214 4.86545 5.4691 4.54744 5.75012 4.41026C5.99775 4.28939 6.35864 4.24019 6.83458 4.25948L6.82778 4.42734C6.37715 4.40908 6.0419 4.45478 5.82382 4.56124C5.63913 4.65139 5.60535 4.88013 5.74511 5.27804Z" fill="#C88A02"/>
<path d="M7.59694 4.07903C7.21283 4.07903 7.0551 4.17258 6.96499 4.44879C6.90756 4.62482 6.96325 4.77505 7.14385 4.91529L7.04081 5.04798C6.807 4.86642 6.72457 4.64406 6.80527 4.39669C6.92011 4.04467 7.14545 3.91103 7.59694 3.91103C7.89285 3.91103 8.12337 3.98877 8.28388 4.14699L8.30891 4.17166V4.98164H8.14091V4.24347C8.01555 4.13459 7.83549 4.07903 7.59694 4.07903Z" fill="#C88A02"/>
<path d="M9.78671 4.27489L9.78817 4.35888C10.533 4.34587 10.9602 4.45457 11.0687 4.67121C11.1808 4.89518 11.16 5.16744 11.0029 5.49086L11.0784 5.52757C11.246 5.18249 11.2689 4.88355 11.1438 4.6336C11.015 4.37632 10.563 4.26134 9.78671 4.27489Z" fill="white"/>
<path d="M9.52373 4.95321L9.5668 5.02534C9.729 4.92848 9.81018 4.7632 9.81018 4.53543C9.81018 4.20807 9.64155 4.0161 9.26853 3.88473C9.03047 3.80089 8.70526 3.83527 8.292 3.9851L8.32063 4.06407C8.71735 3.92023 9.02432 3.88778 9.24063 3.96396C9.58277 4.08446 9.72618 4.24771 9.72618 4.53543C9.72618 4.73531 9.65875 4.87259 9.52373 4.95321Z" fill="white"/>
<path d="M10.9494 5.36204L11.1079 5.41771C11.2723 4.94945 11.2254 4.63144 10.9443 4.49426C10.6967 4.37339 10.3358 4.32419 9.85988 4.34348L9.86668 4.51134C10.3173 4.49308 10.6526 4.53878 10.8706 4.64524C11.0553 4.73539 11.0891 4.96413 10.9494 5.36204Z" fill="#C88A02"/>
<path d="M9.08787 4.09201C9.47198 4.09201 9.62972 4.18556 9.71983 4.46178C9.77726 4.6378 9.72156 4.78804 9.54097 4.92828L9.64401 5.06097C9.87781 4.87941 9.96025 4.65705 9.87954 4.40967C9.7647 4.05766 9.53936 3.92401 9.08787 3.92401C8.79196 3.92401 8.56144 4.00175 8.40094 4.15998L8.37591 4.18465V4.99462H8.54391V4.25645C8.66926 4.14757 8.84932 4.09201 9.08787 4.09201Z" fill="#C88A02"/>
<path opacity="0.3" fill-rule="evenodd" clip-rule="evenodd" d="M5.604 6.948H11.064V11.8536C11.064 11.8536 10.6584 13.5 8.334 13.5C6.00959 13.5 5.604 11.8102 5.604 11.8102V6.948Z" fill="#E1E5E8"/>
<mask id="mask3_2270_12042" style="mask-type:luminance" maskUnits="userSpaceOnUse" x="5" y="6" width="7" height="8">
<path fill-rule="evenodd" clip-rule="evenodd" d="M5.604 6.948H11.064V11.8536C11.064 11.8536 10.6584 13.5 8.334 13.5C6.00959 13.5 5.604 11.8102 5.604 11.8102V6.948Z" fill="white"/>
</mask>
<g mask="url(#mask3_2270_12042)">
<rect x="5.604" y="9.972" width="2.772" height="3.276" fill="#FFC034"/>
<rect x="5.94006" y="10.14" width="0.336" height="3.108" fill="#AD1619"/>
<rect x="7.11597" y="10.14" width="0.336" height="3.108" fill="#AD1619"/>
<rect x="6.52795" y="10.14" width="0.336" height="3.108" fill="#AD1619"/>
<rect x="7.70398" y="10.14" width="0.336" height="3.108" fill="#AD1619"/>
<rect x="5.604" y="6.864" width="2.772" height="3.192" fill="#AD1619"/>
<rect x="8.29199" y="9.888" width="2.772" height="3.192" fill="#AD1619"/>
<rect x="8.29199" y="6.948" width="2.94" height="3.108" fill="#F1F9FF"/>
<path fill-rule="evenodd" clip-rule="evenodd" d="M6.78002 7.2H7.03202V7.89689H7.20002V7.54844H7.45202V7.89689H7.70402V8.33244H7.45202V9.11644H7.70402V9.552H6.19202V9.11644H6.44402V8.33244H6.19202V7.89689H6.36002V7.54844H6.61202V7.89689H6.78002V7.2Z" fill="#C88A02"/>
<path d="M9.73413 7.34626L9.90615 7.16211L10.2673 7.49948L10.0953 7.68363L9.73413 7.34626Z" fill="#C88A02"/>
<path fill-rule="evenodd" clip-rule="evenodd" d="M10.77 12.1051V10.266H8.67004V12.0897L8.67338 12.1039C8.77968 12.5568 9.1417 12.786 9.72004 12.786C10.2978 12.786 10.6598 12.5627 10.7665 12.1196L10.77 12.1051ZM9.72004 12.534C9.25602 12.534 9.0026 12.3777 8.92204 12.0599V10.518H10.518V12.0745C10.4377 12.3819 10.1843 12.534 9.72004 12.534Z" fill="#FFC034"/>
<path fill-rule="evenodd" clip-rule="evenodd" d="M9.80665 10.4197H9.63165V11.2535L8.94179 10.5031L8.81812 10.6169L9.442 11.2954H8.87673V11.5474H9.31096H9.45575L8.81812 12.2409L8.94179 12.3546L9.63165 11.6043V12.5789H9.80665V11.692L10.4159 12.3546L10.5396 12.2409L9.90192 11.5474H10.6136V11.2954H9.91567L10.5396 10.6169L10.4159 10.5031L9.80665 11.1658V10.4197Z" fill="#FFC034"/>
<path fill-rule="evenodd" clip-rule="evenodd" d="M10.112 13.082C10.112 13.082 8.33285 13.2219 8.33285 12.0744C8.33285 12.0744 8.31588 13.082 6.45813 13.082V13.9879H10.112V13.082Z" fill="#F1F9FF"/>
<path fill-rule="evenodd" clip-rule="evenodd" d="M8.33398 10.644C8.68192 10.644 8.96398 10.3431 8.96398 9.972C8.96398 9.60087 8.68192 9.3 8.33398 9.3C7.98604 9.3 7.70398 9.60087 7.70398 9.972C7.70398 10.3431 7.98604 10.644 8.33398 10.644Z" fill="#005BBF" stroke="#AD1619" stroke-width="0.729167"/>
</g>
</g>
</g>
<defs>
<clipPath id="clip0_2270_12042">
<rect width="24" height="18" fill="white"/>
</clipPath>
</defs>
</svg>
