<svg width="103" height="32" viewBox="0 0 103 32" fill="none" xmlns="http://www.w3.org/2000/svg">
<g clip-path="url(#clip0_2507_751)">
<path d="M102.575 21.1171C102.575 22.1567 102.269 23.1236 101.753 23.9374C101.52 24.3003 101.245 24.6302 100.931 24.9288C99.996 25.8069 98.7314 26.3551 97.3373 26.3551H87.6674C84.3141 26.3551 81.5115 28.7812 80.9312 31.9704C80.9236 32.0118 80.8635 32.0093 80.8585 31.9679C80.8314 31.7107 80.8179 31.451 80.8179 31.1904C80.8179 29.337 81.5192 27.6367 82.6713 26.3559C83.5333 25.3806 84.6618 24.6471 85.9349 24.2605C86.6117 24.0516 87.329 23.9382 88.0701 23.9382H97.3373C98.7153 23.9382 99.9639 23.4062 100.899 22.5365C101.613 21.8767 102.135 21.0198 102.393 20.0563C102.403 20.019 102.456 20.019 102.464 20.0563C102.537 20.398 102.574 20.7516 102.574 21.1179L102.575 21.1171Z" fill="#07B0B1"/>
<path d="M97.0718 15.8875C96.467 15.2513 95.9188 14.5661 95.4358 13.8251C95.094 13.3125 94.7827 12.777 94.5052 12.2221C93.8928 10.9963 92.958 9.9448 91.7196 9.36026C91.1536 9.09295 90.5708 8.85862 89.9719 8.65983C88.6175 8.20048 87.1845 7.92217 85.6999 7.84519C86.814 4.50883 85.4444 1.54637 85.1137 0.908531C85.0959 0.873847 85.0511 0.886536 85.0511 0.926295C85.0722 2.78143 83.0428 5.7625 83.0428 5.7625C83.1917 0.574387 81.8847 0.0515994 81.6656 0.000843312C81.6479 -0.00338636 81.631 0.00591892 81.6242 0.0219917C81.5269 0.266467 80.7732 2.1216 79.9569 3.21624C79.2031 4.22713 78.0315 5.32177 76.8717 6.7624C76.2508 7.53304 75.7289 8.28508 75.3778 8.81802C69.6094 11.0124 65.5083 16.5955 65.5083 23.1321C65.5083 26.0167 66.3086 28.7195 67.6976 31.0196C67.7128 31.0441 67.7492 31.0424 67.7619 31.0162C68.2077 30.1043 68.7533 29.2549 69.3844 28.4665C71.6769 25.5751 75.0851 23.6016 78.9587 23.2074C78.9933 23.204 79.0035 23.16 78.9747 23.1414C77.3971 22.1119 76.4564 20.1628 76.8996 18.0641C77.282 16.247 78.7463 14.7742 80.5617 14.3826C82.2908 14.0095 83.9234 14.5763 85.0232 15.6726C85.0502 15.6997 85.0959 15.6709 85.0832 15.6346C84.9301 15.2057 84.848 14.7472 84.848 14.2684C84.848 12.0444 86.6524 10.2392 88.8764 10.2392C88.9415 10.2392 89.0134 10.2392 89.0777 10.2476C89.0862 10.2476 89.0862 10.2561 89.0862 10.2561C89.8111 10.2798 90.4887 10.5141 91.0682 10.8922C91.0682 10.8922 91.0767 10.8922 91.0767 10.9007C91.6527 11.2687 92.1214 11.7813 92.442 12.3879C92.7626 12.9952 93.1196 13.5865 93.617 14.0586C93.7921 14.2244 93.9723 14.386 94.155 14.5433C94.7759 15.0915 95.4451 15.583 96.154 16.0186C96.8045 16.4204 97.4872 16.7757 98.2028 17.0786C98.2417 17.0946 98.2722 17.043 98.2409 17.016C97.8272 16.6649 97.4381 16.2893 97.0735 15.8892L97.0718 15.8875ZM78.5941 7.98308C79.3875 6.31828 80.5355 4.82267 80.7969 4.35402C81.1674 3.68827 81.2604 3.26869 81.5498 2.75098C81.5675 2.71968 81.6157 2.73152 81.6183 2.76705C81.8145 5.15766 81.5294 6.82584 81.2418 7.82743C81.0194 8.60653 80.796 8.98297 80.796 8.98297C80.0914 8.86116 78.2548 10.2214 77.8843 10.5023C77.8589 10.5217 77.8226 10.5023 77.8251 10.4701C77.8945 9.66903 78.2007 8.80617 78.5932 7.98392L78.5941 7.98308Z" fill="#07B0B1"/>
<path d="M0 27.0471H1.31289C2.69176 27.0471 3.59776 27.7686 3.59776 29.4013C3.59776 31.0339 2.69176 31.7987 1.3738 31.7987H0V27.0471ZM1.25283 30.9324C1.99218 30.9324 2.49466 30.5374 2.49466 29.4004C2.49466 28.2635 1.99218 27.9124 1.25283 27.9124H1.07518V30.9316H1.25283V30.9324Z" fill="white"/>
<path d="M12.0087 27.0471H15.1581V27.9488H13.0838V28.9013H14.8459V29.8031H13.0838V30.8969H15.2308V31.7987H12.0078V27.0471H12.0087Z" fill="white"/>
<path d="M23.644 27.0471H24.7844L25.3554 29.26C25.4966 29.7794 25.5922 30.2599 25.736 30.7827H25.7648C25.9086 30.2599 26.011 29.7794 26.1455 29.26L26.7055 27.0471H27.806L26.3739 31.7987H25.0804L23.644 27.0471Z" fill="white"/>
<path d="M36.2176 31.1997L36.8343 30.4612C37.1938 30.7556 37.6371 30.957 38.0973 30.957C38.5575 30.957 38.7648 30.7802 38.7648 30.5475C38.7648 30.2058 38.4822 30.1229 38.033 29.9342L37.4138 29.6703C36.8868 29.4698 36.4071 29.0663 36.4071 28.3752C36.4071 27.5885 37.116 26.9591 38.1481 26.9591C38.7199 26.9591 39.2968 27.1731 39.7257 27.5817L39.1843 28.2593C38.8502 28.019 38.5533 27.8879 38.0897 27.8879C37.7352 27.8879 37.495 28.0351 37.495 28.3126C37.495 28.59 37.8131 28.7034 38.269 28.8743L38.8502 29.1204C39.4728 29.3539 39.8653 29.7422 39.8653 30.4122C39.8653 31.2023 39.2021 31.8866 38.0262 31.8866C37.3842 31.8866 36.721 31.6515 36.2168 31.2006L36.2176 31.1997Z" fill="white"/>
<path d="M0 9.0811H3.37612V14.8132H7.41461V9.0811H10.7907V23.9687H7.41461V17.7562H3.37612V23.9687H0V9.0811Z" fill="white"/>
<path d="M13.6772 18.2375V9.0811H17.0534V18.5793C17.0534 20.3608 17.709 21.3319 19.1115 21.3319C20.5141 21.3319 21.2154 20.3608 21.2154 18.5793V9.0811H24.4671V18.2375C24.4671 22.1043 22.7279 24.2436 19.1115 24.2436C15.4952 24.2436 13.6772 22.1043 13.6772 18.2375Z" fill="white"/>
<path d="M25.7699 22.0924L27.7037 19.7788C28.8288 20.7009 30.2178 21.3328 31.661 21.3328C33.1041 21.3328 33.7513 20.7787 33.7513 20.0512C33.7513 18.9794 32.8664 18.7205 31.4571 18.1301L29.5182 17.3027C27.8687 16.6759 26.3629 15.4104 26.3629 13.2439C26.3629 10.778 28.5843 8.80702 31.8183 8.80702C33.6092 8.80702 35.4195 9.47869 36.7628 10.7561L35.065 12.8802C34.0169 12.1273 33.0889 11.717 31.6348 11.717C30.5249 11.717 29.7712 12.1772 29.7712 13.0468C29.7712 13.9165 30.7694 14.2701 32.1973 14.8055L34.0186 15.577C35.9685 16.3079 37.1993 17.5235 37.1993 19.624C37.1993 22.0992 35.1234 24.2419 31.4376 24.2419C29.4252 24.2419 27.3484 23.506 25.769 22.0916L25.7699 22.0924Z" fill="white"/>
<path d="M51.7719 23.9687H48.0379L44.8657 17.6343L43.1425 19.9023V23.9687H39.7334V9.0811H43.1425V15.1558H43.2263L47.6133 9.0811H51.3582L46.8612 15.0009L51.7719 23.9687Z" fill="white"/>
<path d="M57.3435 18.9362L52.5479 9.0811H56.1473L57.6607 12.656C58.0997 13.8048 58.543 14.8808 59.0116 16.0694H59.103C59.5649 14.8817 60.0437 13.8048 60.4996 12.656L61.9944 9.0811H65.5093L60.7137 18.9362V23.9687H57.3443V18.9362H57.3435Z" fill="white"/>
</g>
<defs>
<clipPath id="clip0_2507_751">
<rect width="102.575" height="32" fill="white"/>
</clipPath>
</defs>
</svg>
