<?xml version="1.0" encoding="UTF-8"?>
<svg id="Capa_2" data-name="Capa 2" xmlns="http://www.w3.org/2000/svg" viewBox="0 0 428.94 370.31">
  <defs>
    <style>
      .cls-1 {
        fill: #07b0b1;
        stroke-width: 0px;
      }
    </style>
  </defs>
  <g id="graficos">
    <g id="isotipo_positivo">
      <path class="cls-1" d="m428.94,244.37c0,12.03-3.54,23.22-9.51,32.64-2.7,4.2-5.87,8.02-9.51,11.47-10.82,10.16-25.46,16.51-41.59,16.51h-111.9c-38.81,0-71.23,28.08-77.95,64.98-.09.48-.79.45-.84-.03-.32-2.97-.47-5.99-.47-9,0-21.45,8.11-41.12,21.45-55.95,9.98-11.28,23.03-19.77,37.77-24.25,7.83-2.42,16.13-3.73,24.71-3.73h107.24c15.95,0,30.4-6.16,41.22-16.23,8.26-7.64,14.32-17.55,17.29-28.7.11-.43.73-.43.82,0,.85,3.95,1.28,8.05,1.28,12.28Z"/>
      <path class="cls-1" d="m365.25,183.85c-7-7.36-13.34-15.29-18.93-23.87-3.95-5.93-7.55-12.13-10.76-18.55-7.09-14.19-17.9-26.35-32.24-33.12-6.55-3.09-13.3-5.81-20.22-8.1-15.67-5.32-32.26-8.54-49.43-9.43,12.89-38.61-2.96-72.89-6.78-80.27-.2-.4-.72-.25-.72.2.24,21.46-23.24,55.96-23.24,55.96C204.63,6.64,189.5.6,186.98.01c-.2-.05-.4.06-.48.25-1.13,2.83-9.85,24.3-19.3,36.96-8.72,11.7-22.28,24.37-35.7,41.03-7.18,8.92-13.22,17.62-17.29,23.78C47.45,127.43,0,192.04,0,267.68c0,33.38,9.26,64.65,25.33,91.27.17.29.6.27.75-.04,5.16-10.55,11.47-20.38,18.77-29.5,26.53-33.46,65.97-56.3,110.79-60.86.4-.04.52-.55.18-.76-18.26-11.91-29.14-34.47-24.01-58.76,4.43-21.03,21.37-38.07,42.38-42.6,20.01-4.32,38.9,2.24,51.63,14.92.31.31.84-.02.69-.44-1.77-4.96-2.72-10.27-2.72-15.81,0-25.73,20.88-46.63,46.62-46.63.75,0,1.59,0,2.33.1.1,0,.1.1.1.1,8.39.28,16.23,2.99,22.94,7.36,0,0,.1,0,.1.1,6.66,4.26,12.09,10.19,15.8,17.21,3.71,7.02,7.84,13.87,13.59,19.33,2.02,1.92,4.11,3.79,6.23,5.6,7.18,6.35,14.93,12.04,23.13,17.07,7.53,4.65,15.43,8.76,23.71,12.27.45.19.81-.41.44-.72-4.79-4.07-9.29-8.41-13.51-13.04Zm-213.83-91.47c9.19-19.26,22.47-36.57,25.49-42,4.29-7.7,5.36-12.56,8.72-18.55.2-.36.76-.23.8.19,2.27,27.66-1.03,46.97-4.35,58.56-2.57,9.02-5.16,13.37-5.16,13.37-8.16-1.41-29.41,14.33-33.69,17.58-.29.22-.72,0-.69-.37.8-9.27,4.34-19.26,8.89-28.77Z"/>
    </g>
  </g>
</svg>